<svg xmlns="http://www.w3.org/2000/svg" width="213.942" height="46.605" viewBox="0 0 213.942 46.605">
  <path id="Logo" d="M201.942,46.3h-5.076V22.123h5.076v1.4a7.06,7.06,0,0,1,9.929.635,8.373,8.373,0,0,1,2.171,5.834,8.818,8.818,0,0,1-2.179,6.227,7.535,7.535,0,0,1-5.768,2.344,8.224,8.224,0,0,1-4.153-1.111V46.3Zm3.145-20.918a5.118,5.118,0,0,0-3.145,1.3V34.1a4.923,4.923,0,0,0,2.939,1.059,3.607,3.607,0,0,0,2.931-1.324,5.509,5.509,0,0,0,1.085-3.58,5.738,5.738,0,0,0-1-3.589A3.376,3.376,0,0,0,205.087,25.387ZM181.536,46.3h-5.075V22.123h5.075v1.4a7.061,7.061,0,0,1,9.93.635,8.373,8.373,0,0,1,2.17,5.834,8.818,8.818,0,0,1-2.179,6.227,7.534,7.534,0,0,1-5.767,2.344,8.23,8.23,0,0,1-4.154-1.111V46.3Zm3.145-20.918a5.118,5.118,0,0,0-3.145,1.3V34.1a4.927,4.927,0,0,0,2.939,1.059,3.607,3.607,0,0,0,2.931-1.324,5.5,5.5,0,0,0,1.085-3.58,5.732,5.732,0,0,0-1-3.589A3.376,3.376,0,0,0,184.681,25.387ZM111.588,38.563a9.4,9.4,0,0,1-6.572-2.335,7.868,7.868,0,0,1-2.554-6.064,7.745,7.745,0,0,1,2.605-6.09,9.557,9.557,0,0,1,6.521-2.292A9.7,9.7,0,0,1,118.022,24a7.69,7.69,0,0,1,2.641,6.193,7.552,7.552,0,0,1-2.684,6.176A9.832,9.832,0,0,1,111.588,38.563Zm0-13.757a3.17,3.17,0,0,0-2.726,1.387,6.841,6.841,0,0,0-.983,3.971,7.2,7.2,0,0,0,.927,4.044,3.165,3.165,0,0,0,2.782,1.348,3.068,3.068,0,0,0,2.73-1.374,7.567,7.567,0,0,0,.91-4.121,6.984,6.984,0,0,0-.91-3.941A3.113,3.113,0,0,0,111.588,24.806ZM95.951,38.563a6.516,6.516,0,0,1-4.614-1.538A5.914,5.914,0,0,1,89.7,32.513V25.592H87.389V24.6l6.75-7.554h.633v5.076h5.879v3.469H94.772V32.24a2.64,2.64,0,0,0,.658,1.889,2.4,2.4,0,0,0,1.82.692,7.542,7.542,0,0,0,3.4-.94v3.675A12.273,12.273,0,0,1,95.951,38.563Zm-49.253,0a9.4,9.4,0,0,1-6.571-2.335,7.868,7.868,0,0,1-2.555-6.064,7.745,7.745,0,0,1,2.606-6.09,9.556,9.556,0,0,1,6.52-2.292A9.7,9.7,0,0,1,53.132,24a7.69,7.69,0,0,1,2.64,6.193,7.552,7.552,0,0,1-2.683,6.176A9.834,9.834,0,0,1,46.7,38.563Zm0-13.757a3.169,3.169,0,0,0-2.725,1.387,6.841,6.841,0,0,0-.983,3.971,7.206,7.206,0,0,0,.927,4.044A3.164,3.164,0,0,0,46.7,35.555a3.069,3.069,0,0,0,2.73-1.374,7.566,7.566,0,0,0,.91-4.121,6.983,6.983,0,0,0-.91-3.941A3.114,3.114,0,0,0,46.7,24.806ZM64.249,38.256H59.173V22.123h5.076v2.29A6.743,6.743,0,0,1,69.5,21.781a5.862,5.862,0,0,1,4.2,1.608,6.09,6.09,0,0,1,1.684,4.6V38.254H70.3V28.417c0-2.146-.845-3.235-2.512-3.235-1.191,0-2.382.9-3.538,2.666V38.255Zm89.29,0h-6.3l9.643-23.874h6.891l10.6,23.873h-6.394l-1.967-4.717H155.322l-1.783,4.717Zm6.866-18.167h0l-3.507,9.28h7.377l-3.87-9.28ZM144.931,38.255h-5.076V22.123h5.076V38.254Zm-15.655,0H124.2V22.123h5.076v4.614h.068c1.463-3.289,3.194-4.956,5.144-4.956a6.062,6.062,0,0,1,3.367,1.47l-1.4,4.495a6.225,6.225,0,0,0-3.008-1.2c-1.168,0-2.166.734-2.965,2.182a11.026,11.026,0,0,0-1.205,2.542v6.981Zm-44.519,0H79.681V22.123h5.075V38.254Zm-51.1,0H27.711v-.014H13.919v.013H7.972v-.014H.1V4.7a5.006,5.006,0,0,1,5-5H33.706V38.242h-.048v.013ZM7.972,38.242h5.947V23.353l6.448,7.485h.894l6.449-7.485V38.241h5.947V14.381h-5.17l-7.673,8.852-7.679-8.852H7.972V38.242ZM142.366,19.679a2.676,2.676,0,0,1-1.965-.829,2.794,2.794,0,0,1,0-3.956,2.794,2.794,0,0,1,4.767,1.982,2.815,2.815,0,0,1-2.8,2.8Zm-60.173,0a2.68,2.68,0,0,1-1.966-.829,2.8,2.8,0,0,1,0-3.956A2.794,2.794,0,0,1,85,16.876a2.815,2.815,0,0,1-2.8,2.8Z" transform="translate(-0.1 0.3)" fill="#fff"/>
</svg>
